<svg id="Ebene_1" data-name="Ebene 1" xmlns="http://www.w3.org/2000/svg" xmlns:xlink="http://www.w3.org/1999/xlink" viewBox="0 0 640 640"><defs><style>.cls-1{fill:none;}.cls-2{fill:#7d7;}.cls-3{clip-path:url(#clip-path);}.cls-4{opacity:0.05;}</style><clipPath id="clip-path"><path id="blatt" class="cls-1" d="M420.21,20H620a0,0,0,0,1,0,0V219.79A400.21,400.21,0,0,1,219.79,620H20a0,0,0,0,1,0,0V420.21A400.21,400.21,0,0,1,420.21,20Z"/></clipPath></defs><title>Zeichenfläche 1</title><g id="blatt-2" data-name="blatt"><path class="cls-2" d="M219.79,620H20V420.21C20,199.18,199.18,20,420.21,20H620V219.79C620,440.82,440.82,620,219.79,620Z"/></g><g class="cls-3"><rect id="_3" data-name="3" class="cls-4" x="220" y="20" width="400" height="400"/><rect id="_2" data-name="2" class="cls-4" x="-226.19" y="65.31" width="879.48" height="298.7" transform="translate(-89.24 213.87) rotate(-45)"/><rect id="_1" data-name="1" class="cls-4" x="420" y="20" width="200" height="200"/></g></svg>