<svg viewBox="0 0 640 640" xmlns="http://www.w3.org/2000/svg" xmlns:xlink="http://www.w3.org/1999/xlink"><clipPath id="a"><path d="m420.21 20h199.79a0 0 0 0 1 0 0v199.79a400.21 400.21 0 0 1 -400.21 400.21h-199.79a0 0 0 0 1 0 0v-199.79a400.21 400.21 0 0 1 400.21-400.21z"/></clipPath><path d="m219.79 620h-199.79v-199.79c0-221.03 179.18-400.21 400.21-400.21h199.79v199.79c0 221.03-179.18 400.21-400.21 400.21z" fill="#7d7"/><g clip-path="url(#a)"><path d="m220 20h400v400h-400z" opacity=".05"/><path d="m-226.19 65.31h879.48v298.7h-879.48z" opacity=".05" transform="matrix(.70710678 -.70710678 .70710678 .70710678 -89.24 213.87)"/><path d="m420 20h200v200h-200z" opacity=".05"/></g></svg>